<?xml version="1.0" encoding="UTF-8" standalone="no"?>
<!-- Created with Inkscape (http://www.inkscape.org/) -->

<svg
   xmlns:dc="http://purl.org/dc/elements/1.1/"
   xmlns:cc="http://creativecommons.org/ns#"
   xmlns:rdf="http://www.w3.org/1999/02/22-rdf-syntax-ns#"
   xmlns:svg="http://www.w3.org/2000/svg"
   xmlns="http://www.w3.org/2000/svg"
   xmlns:sodipodi="http://sodipodi.sourceforge.net/DTD/sodipodi-0.dtd"
   xmlns:inkscape="http://www.inkscape.org/namespaces/inkscape"
   width="32"
   height="32"
   id="svg2"
   version="1.1"
   inkscape:version="0.48.4 r9939"
   sodipodi:docname="board.svg">
  <defs
     id="defs4" />
  <sodipodi:namedview
     id="base"
     pagecolor="#ffffff"
     bordercolor="#666666"
     borderopacity="1.0"
     inkscape:pageopacity="0.0"
     inkscape:pageshadow="2"
     inkscape:zoom="16.000001"
     inkscape:cx="7.6462095"
     inkscape:cy="16.61827"
     inkscape:document-units="px"
     inkscape:current-layer="layer1"
     showgrid="false"
     showguides="true"
     inkscape:guide-bbox="true"
     inkscape:window-width="2560"
     inkscape:window-height="1033"
     inkscape:window-x="-4"
     inkscape:window-y="-4"
     inkscape:window-maximized="1" />
  <metadata
     id="metadata7">
    <rdf:RDF>
      <cc:Work
         rdf:about="">
        <dc:format>image/svg+xml</dc:format>
        <dc:type
           rdf:resource="http://purl.org/dc/dcmitype/StillImage" />
        <dc:title />
      </cc:Work>
    </rdf:RDF>
  </metadata>
  <g
     inkscape:label="Layer 1"
     inkscape:groupmode="layer"
     id="layer1"
     transform="translate(0,-1020.3622)">
    <path
       style="fill:#008000;fill-rule:nonzero;stroke:#000000;stroke-width:0.05454146;stroke-miterlimit:4;stroke-dasharray:none"
       d="m 0.39002418,1038.0954 19.86429082,7.6728 0,1.8182 -19.86336013,-7.6679 z"
       id="rect2985"
       inkscape:connector-curvature="0"
       sodipodi:nodetypes="ccccc" />
    <path
       style="fill:#008000;fill-rule:nonzero;stroke:#000000;stroke-width:0.05454146;stroke-miterlimit:4;stroke-dasharray:none"
       d="m 20.260044,1045.7763 11.474366,-13.5686 0.01144,1.8642 -11.491553,13.5208 z"
       id="rect2985-7"
       inkscape:connector-curvature="0"
       sodipodi:nodetypes="ccccc" />
    <path
       inkscape:connector-curvature="0"
       style="fill:#00ff00;fill-rule:nonzero;stroke:#000000;stroke-width:0.05454146;stroke-miterlimit:4;stroke-dasharray:none"
       d="m 12.788177,1025.757 -12.37409371,12.34 19.87354471,7.6699 11.487795,-13.5672 -18.987246,-6.4427 z m 4.056521,9.1016 c 1.357672,-0.066 2.657092,0.1102 3.579283,0.5114 l 0.06818,0.034 c 1.819316,0.8414 1.391514,2.3522 -0.988564,3.3747 -2.380078,1.0225 -5.7824,1.1482 -7.601716,0.3068 -1.819315,-0.8414 -1.391514,-2.3523 0.988564,-3.3747 1.169695,-0.5025 2.596584,-0.7865 3.954256,-0.8523 z"
       id="rect2985-4" />
    <path
       style="fill:#008000;fill-rule:nonzero;stroke:none"
       d="m 15.944968,1032.3585 c -2.984351,0 -5.385969,1.6665 -5.385969,3.7155 0,0.4622 0.11596,0.9214 0.340884,1.3296 0.240045,-0.5695 0.90618,-1.1616 2.011216,-1.6363 2.33939,-1.005 5.689157,-1.1774 7.533539,-0.375 l 0.06818,0.034 c 0.392807,0.1816 0.667901,0.4152 0.852211,0.6476 0,-2.049 -2.435707,-3.7156 -5.420058,-3.7156 z m 3.817902,6.3404 c -0.08342,0.039 -0.149823,0.064 -0.238619,0.1025 -1.428047,0.6135 -3.238662,0.9277 -4.840554,0.8863 0.405433,0.067 0.826053,0.1026 1.261271,0.1026 1.492175,0 2.840035,-0.4194 3.817902,-1.0908 z"
       id="path3027-0-4"
       inkscape:connector-curvature="0" />
    <path
       sodipodi:type="arc"
       style="fill:none;stroke:#00ff00;stroke-width:0.1;stroke-miterlimit:4;stroke-dasharray:none"
       id="path3027-8"
       sodipodi:cx="15.015625"
       sodipodi:cy="14.84375"
       sodipodi:rx="0.859375"
       sodipodi:ry="0.59375"
       d="m 15.875,14.84375 a 0.859375,0.59375 0 1 1 -1.71875,0 0.859375,0.59375 0 1 1 1.71875,0 z"
       transform="matrix(6.6188182,0,0,6.6188182,-83.60526,937.68376)" />
  </g>
</svg>
